# xmcd
#
# Track frame offsets:
#	150
#	12866
#	27446
#	39991
#	54794
#	74172
#	88192
#	104518
#	119627
#	135017
#
# Disc length: 2033 seconds
#
# Revision: 0
# Processed by: cddbd v1.5.2PL0 Copyright (c) Steve Scherf et al.
# Submitted via: EasyCDDAExtractor 16.0.6.1
#
DISCID=8207ef0a
DTITLE=Συλλογικός δίσκος - Λαϊκό τραγούδι 1954-1967, 1961-4
DYEAR=2008
DGENRE=Λαϊκή
TTITLE0=Γαβαλάς Πάνος-Δούκισσα - Χαμένη αγάπη [Στέλιος Μακρυδάκης]
TTITLE1=Καζαντζίδης Στέλιος-Μαρινέλλα - Καλύτερα στον τόπο μας [Στέλιος Καζαντ
TTITLE1=ζίδης]
TTITLE2=Ζαγοραίος Σπύρος-Κούρτη Ρία - Κι αν είναι φτωχοκόριτσο [Νίκος Δαλέζιος
TTITLE2=]
TTITLE3=Γαβαλάς Πάνος-Κούρτη Ρία - Δεν βρίσκεται ένας δικαστής [Ευάγγελος Μπαλ
TTITLE3=λής]
TTITLE4=Γκρέϋ Καίτη - Θέλω να είναι Κυριακή [Βασίλης Τσιτσάνης]
TTITLE5=Μπιθικώτσης Γρηγόρης - Η διαθήκη του Μπιθικώτση [Θεόδωρος Δερβενιώτης-
TTITLE5=Κώστας Βίρβος]
TTITLE6=Καζαντζίδης Στέλιος - Παίξε, Χρήστο, το μπουζούκι [Βασίλης Τσιτσάνης]
TTITLE7=Λύδια Γιώτα - Ο ταυρομάχος ξεψυχά [Στράτος Ατταλίδης-Κώστας Βίρβος]
TTITLE8=Πάνου Πόλυ - Πικραμένη μάννα [Θεόδωρος Δερβενιώτης-Κώστας Βίρβος]
TTITLE9=Καζαντζίδης Στέλιος-Μαρινέλλα - Βράχο, βράχο τον καϋμό μου [Μίκης Θεοδ
TTITLE9=ωράκης-Δημ. Χριστοδούλου]
EXTD=
EXTT0=
EXTT1=
EXTT2=
EXTT3=
EXTT4=
EXTT5=
EXTT6=
EXTT7=
EXTT8=
EXTT9=
PLAYORDER=
